<svg width="335" height="393" viewBox="0 0 335 393" fill="none" xmlns="http://www.w3.org/2000/svg">
<g clip-path="url(#clip0)">
<path d="M163.6 392.4C158.3 392.4 153.9 392.4 148.8 392.4C148.8 390.2 148.8 388.3 148.8 386.3C148.8 321.8 148.8 257.4 148.9 192.9C148.9 188.7 148.2 186.3 143.7 184.4C131.2 179.2 124.1 165.1 126.7 152C129.4 138.1 141.2 127.9 155 127.4C168.8 126.9 181.4 135.9 185.1 149C189 162.7 183.2 176.6 170.8 183.5C169.8 184.1 168.8 184.9 167.7 185.1C163.8 185.8 163.5 188.3 163.5 191.7C163.6 246.7 163.6 301.6 163.6 356.6C163.6 368.3 163.6 380.1 163.6 392.4Z" fill="white"/>
<path d="M120.1 138.9C117.1 140.6 115.5 142.1 113.6 142.4C112.2 142.6 110.5 141.4 109.1 140.6C77.9 124.3 46.6 108 15.4 91.6C13.8 90.8 11.7 90.2 10.7 88.9C9.60002 87.5 9.50002 85.3 8.90002 83.4C10.9 83 13.4 81.6 14.9 82.3C21.8 85.5 28.5 89.2 35.3 92.7C61.4 106.4 87.4 120 113.5 133.7C115.5 134.9 117 136.5 120.1 138.9Z" fill="white"/>
<path d="M202.4 180.7C204.2 181.5 205.6 182.1 206.9 182.8C237.8 199 268.8 215.1 299.6 231.4C301.3 232.3 302.9 234 303.9 235.8C304.3 236.5 303 239.1 302 239.3C300.3 239.7 298.1 239.5 296.5 238.7C279.6 230 262.9 221.2 246.1 212.5C232.1 205.2 218.1 197.9 204.1 190.5C202.6 189.7 201 189.1 199.9 187.9C199.1 186.9 198.5 185 199 184C199.6 182.6 201.2 181.8 202.4 180.7Z" fill="white"/>
<path d="M146.7 110.9C145.8 111.8 144.5 114.1 143.5 114C141.7 113.8 139.2 112.5 138.7 111C136.6 105.1 135.2 98.9 133.5 92.8C125.8 64.5 118 36.1 110.5 7.7C110 5.6 110.2 2.5 111.5 1C113.5 -1.5 116.9 0.500003 118.1 4.7C122.1 19.3 126.1 33.8 130 48.4C135.2 67.8 140.4 87.2 145.7 106.6C146 107.8 146.2 109 146.7 110.9Z" fill="white"/>
<path d="M184.4 113.7C179.8 113.5 178.6 110.3 180.6 106.5C187.3 93.8 194 81.2 200.7 68.6C209.8 51.6 218.9 34.6 228 17.6C229.4 15 230.8 12.1 234.3 14C237.6 15.8 236.5 18.7 235.1 21.4C219.4 50.9 203.7 80.4 187.9 109.9C187 111.6 185.2 112.8 184.4 113.7Z" fill="white"/>
<path d="M203 318C202.1 318.8 200.5 321.2 199.5 321C197.6 320.6 195.2 319 194.6 317.3C192.2 310.1 190.5 302.6 188.5 295.2C182.7 273.6 176.9 251.9 170.9 230.3C170.1 227.3 170.1 224.8 173.2 223.7C176.3 222.6 177.7 224.8 178.5 227.4C186.5 256.7 194.4 286 202.4 315.4C202.5 316 202.6 316.4 203 318Z" fill="white"/>
<path d="M244.1 132.9C243.1 131.8 241.2 130.6 241.1 129.3C241 127.9 242.1 125.7 243.4 125C246.6 123.3 250.1 122.2 253.5 120.9C278.2 111.4 302.8 101.9 327.5 92.5C331.8 90.8 335.6 92.4 334.7 95.7C334.2 97.5 332 99.4 330.1 100.1C310.1 107.9 290.1 115.6 270.1 123.2C263 125.9 255.8 128.7 248.7 131.4C247.4 131.8 246.1 132.2 244.1 132.9Z" fill="white"/>
<path d="M129.3 219.3C128.5 221 127.9 222.4 127.2 223.7C114.2 248 101.1 272.4 88.1 296.7C87.6 297.6 87.3 298.8 86.6 299.2C84.9 300.1 83 300.6 81.1 301.2C80.6 299.3 79.1 297 79.7 295.6C81.8 290.7 84.6 286.2 87.1 281.5C98.2 260.8 109.2 240.2 120.3 219.5C121.8 216.7 123.4 213.9 127.1 216.3C128.1 217 128.6 218.4 129.3 219.3Z" fill="white"/>
<path d="M2 222.1C1.3 220.4 -0.199996 218.7 3.6303e-06 217.1C0.200004 215.4 1.5 213 3 212.3C9.6 209.5 16.3 207.2 23.1 204.7C42.5 197.7 61.8 190.6 81.2 183.6C82 183.3 82.9 182.7 83.6 182.9C85.5 183.3 87.3 184.1 89.1 184.7C88.2 186.6 87.8 189.5 86.4 190.1C79.1 193.2 71.5 195.8 64 198.5C45.4 205.3 26.8 212 8.2 218.8C6.8 219.3 5.4 219.8 4 220.3C3.3 220.9 2.7 221.5 2 222.1Z" fill="white"/>
<path d="M73.2999 248.4C71.8999 247.3 70.0999 246.6 69.7999 245.5C69.3999 244.2 69.6999 242.2 70.4999 241C71.7999 239.1 73.6999 237.6 75.2999 236C88.8999 222.4 102.6 208.7 116.2 195.1C117.1 194.2 118 192.8 119.1 192.4C121.2 191.7 123.4 191.7 125.6 191.4C125.3 193.6 125.8 196.6 124.6 197.9C115.8 207.2 106.7 216.1 97.5999 225.2C90.9999 231.8 84.4999 238.4 77.7999 244.9C76.4999 246.2 74.8999 247.1 73.2999 248.4Z" fill="white"/>
<path d="M81.9 58.7C83.4 59.9 84.9 60.6 85.9 61.8C98.1 77.8 110.3 93.8 122.5 109.8C124.2 112 125 114.3 122.4 116.3C119.8 118.4 117.8 116.9 116.1 114.7C103.9 98.7 91.7 82.8 79.6 66.7C78.6 65.4 78.5 63 78.7 61.2C78.8 60.4 80.6 59.7 81.9 58.7Z" fill="white"/>
<path d="M156.2 85.5C156.6 76.7 156.9 67.9 157.5 59.1C157.6 57.2 158.3 55.2 159.4 53.7C160 52.9 162.6 52.6 163.3 53.2C164.5 54.2 165.6 56.2 165.5 57.7C165.1 70 164.4 82.3 163.8 94.6C163.5 100.2 163.2 105.9 162.9 111.5C162.7 114.5 162 117.6 158.2 117.1C154.8 116.7 154.7 113.8 154.8 110.9C155.4 102.4 155.7 94 156.2 85.5Z" fill="white"/>
<path d="M71.6 154.4C79.4 154.4 87.2 154.4 95 154.4C98 154.4 100.5 155.2 100.4 158.7C100.3 162 97.8 162.5 95 162.4C79 161.8 63.1 161.1 47.1 160.5C44.3 160.4 41.6 159.5 42.4 156.4C42.9 154.8 45.8 152.7 47.6 152.7C55.6 152.6 63.6 153.2 71.5 153.6C71.6 153.9 71.6 154.1 71.6 154.4Z" fill="white"/>
<path d="M234.1 166.8C226.4 166.8 218.8 166.8 211.1 166.8C208.3 166.8 205.9 166 205.9 162.8C206 159.3 208.6 158.6 211.5 158.7C226 159 240.4 159.3 254.9 159.6C257.8 159.7 260.4 160.4 260.3 164C260.2 167.8 257.2 167.7 254.5 167.7C247.7 167.7 240.9 167.7 234 167.7C234.1 167.3 234.1 167.1 234.1 166.8Z" fill="white"/>
<path d="M232.9 101.2C231.6 102.8 230.8 104.2 229.6 105.3C220.5 113.6 211.3 121.8 202.1 130C199.9 131.9 197.2 133.4 195.4 130.4C194.6 129 195.4 125.5 196.7 124.2C205.9 115.5 215.3 107.1 224.9 98.8C226.1 97.7 228.5 97.5 230.3 97.7C231.2 97.8 231.9 99.8 232.9 101.2Z" fill="white"/>
<path d="M205 220.3C206.5 221.4 208 222.1 209 223.3C216.4 232.9 223.7 242.5 231.1 252.2C232.7 254.3 233.8 256.7 231.2 258.7C228.4 260.8 226.3 259.3 224.5 256.9C217.3 247.4 209.9 237.9 202.9 228.3C201.9 226.9 201.7 224.7 201.9 222.9C201.9 222 203.7 221.4 205 220.3Z" fill="white"/>
<path d="M285.8 168.2C281.2 168.2 276.5 168.2 271.9 168.2C269.1 168.2 266.4 167.7 266.2 164.1C266.1 160.3 268.8 160 271.7 160.1C280.8 160.2 289.9 160.4 299.1 160.4C302 160.4 304.8 161.1 304.9 164.4C305 168.2 301.9 168.5 298.8 168.4C294.5 168.3 290.2 168.4 285.9 168.4C285.8 168.4 285.8 168.3 285.8 168.2Z" fill="white"/>
<path d="M266.7 70C264.6 73 263.8 74.5 262.7 75.5C256.1 81.6 249.3 87.5 242.7 93.5C240.6 95.4 238 96.5 236.4 93.7C235.6 92.3 236.1 88.9 237.3 87.8C243.9 81.4 250.7 75.4 257.7 69.5C258.9 68.5 260.9 68.1 262.6 68.2C263.9 68.1 265.2 69.3 266.7 70Z" fill="white"/>
<path d="M315.6 239C321 242.1 326.3 244.9 331.2 248.1C331.9 248.5 331.8 251.4 331.1 252.4C330.4 253.4 328 254.4 326.9 253.9C322.1 251.7 317.4 249.3 312.9 246.5C311.9 245.9 311.3 243.5 311.7 242.2C312.3 241.1 314.1 240.3 315.6 239Z" fill="white"/>
<path d="M75.3 309.7C76.3 311.6 78.3 313.7 77.8 315.1C76.7 318.6 74.7 322 72.5 325.1C71.8 326.1 69.1 326.4 67.8 325.9C66.7 325.5 65.3 322.9 65.7 322.1C67.3 318.4 69.5 314.8 71.6 311.3C72 310.7 73.3 310.6 75.3 309.7Z" fill="white"/>
</g>
<defs>
<clipPath id="clip0">
<rect width="334.8" height="392.4" fill="white"/>
</clipPath>
</defs>
</svg>
