<svg width="111" height="130" viewBox="0 0 111 130" fill="none" xmlns="http://www.w3.org/2000/svg">
<g clip-path="url(#clip0)">
<path d="M54.2401 130C52.4829 130 51.0242 130 49.3333 130C49.3333 129.271 49.3333 128.642 49.3333 127.979C49.3333 106.611 49.3333 85.2752 49.3664 63.9067C49.3664 62.5152 49.1344 61.7201 47.6424 61.0907C43.4982 59.3679 41.1442 54.6967 42.0062 50.3567C42.9014 45.7517 46.8136 42.3725 51.3888 42.2069C55.9641 42.0412 60.1415 45.0229 61.3682 49.3629C62.6612 53.9016 60.7383 58.5066 56.6272 60.7925C56.2957 60.9913 55.9641 61.2563 55.5994 61.3226C54.3064 61.5545 54.2069 62.3827 54.2069 63.5091C54.2401 81.7303 54.2401 99.9184 54.2401 118.14C54.2401 122.016 54.2401 125.925 54.2401 130Z" fill="#40A4FC"/>
<path d="M39.8181 46.0168C38.8234 46.58 38.293 47.077 37.6631 47.1764C37.1989 47.2426 36.6353 46.8451 36.1711 46.58C25.827 41.1799 15.4498 35.7798 5.1057 30.3466C4.57524 30.0816 3.879 29.8828 3.54746 29.4521C3.18276 28.9883 3.14961 28.2595 2.95068 27.63C3.61377 27.4975 4.44262 27.0337 4.93993 27.2656C7.22757 28.3257 9.44889 29.5515 11.7034 30.711C20.3566 35.2498 28.9767 39.7554 37.6299 44.2941C38.293 44.6917 38.7903 45.2217 39.8181 46.0168Z" fill="#40A4FC"/>
<path d="M67.1039 59.8649C67.7007 60.13 68.1649 60.3287 68.5959 60.5606C78.8405 65.9276 89.1183 71.2615 99.3298 76.6616C99.8934 76.9597 100.424 77.5229 100.755 78.1193C100.888 78.3512 100.457 79.2125 100.125 79.2788C99.5618 79.4113 98.8324 79.3451 98.302 79.08C92.6989 76.1978 87.1622 73.2824 81.5923 70.4001C76.9507 67.9816 72.3091 65.5632 67.6676 63.1116C67.1702 62.8466 66.6398 62.6478 66.2751 62.2502C66.0099 61.919 65.8109 61.2895 65.9767 60.9582C66.1756 60.4944 66.7061 60.2294 67.1039 59.8649Z" fill="#40A4FC"/>
<path d="M48.6371 36.7406C48.3387 37.0387 47.9077 37.8007 47.5762 37.7676C46.9794 37.7013 46.1505 37.2707 45.9848 36.7737C45.2885 34.8191 44.8244 32.765 44.2607 30.7441C41.7079 21.3685 39.1219 11.9597 36.6353 2.55097C36.4695 1.85526 36.5358 0.828243 36.9668 0.331301C37.6299 -0.496936 38.7572 0.165654 39.155 1.55709C40.4812 6.39399 41.8073 11.1978 43.1004 16.0347C44.8244 22.4618 46.5484 28.8889 48.3056 35.316C48.405 35.7136 48.4713 36.1111 48.6371 36.7406Z" fill="#40A4FC"/>
<path d="M61.1362 37.6682C59.6111 37.6019 59.2132 36.5418 59.8763 35.2829C62.0977 31.0754 64.319 26.9011 66.5403 22.7268C69.5573 17.0948 72.5743 11.4628 75.5914 5.83076C76.0555 4.9694 76.5197 4.00864 77.6801 4.6381C78.7742 5.23443 78.4095 6.19519 77.9453 7.08968C72.7401 16.8629 67.5349 26.6361 62.2966 36.4093C61.9982 36.9725 61.4014 37.37 61.1362 37.6682Z" fill="#40A4FC"/>
<path d="M67.3029 105.352C67.0045 105.617 66.474 106.412 66.1425 106.346C65.5125 106.213 64.7168 105.683 64.5179 105.12C63.7222 102.734 63.1586 100.25 62.4955 97.7982C60.5726 90.6422 58.6496 83.4531 56.6604 76.2971C56.3951 75.3033 56.3951 74.475 57.4229 74.1106C58.4507 73.7462 58.9149 74.475 59.1801 75.3364C61.8324 85.0433 64.4516 94.7502 67.1039 104.49C67.1371 104.689 67.1702 104.822 67.3029 105.352Z" fill="#40A4FC"/>
<path d="M80.9292 44.029C80.5977 43.6646 79.9677 43.2671 79.9346 42.8364C79.9014 42.3726 80.2661 41.6437 80.6971 41.4118C81.7581 40.8486 82.9185 40.4842 84.0457 40.0535C92.2348 36.9062 100.391 33.7589 108.58 30.6447C110.005 30.0815 111.265 30.6116 110.967 31.7049C110.801 32.3012 110.072 32.9307 109.442 33.1626C102.811 35.7467 96.1801 38.2976 89.5493 40.8155C87.1953 41.71 84.8082 42.6376 82.4543 43.5321C82.0233 43.6646 81.5923 43.7971 80.9292 44.029Z" fill="#40A4FC"/>
<path d="M42.8683 72.6529C42.6031 73.2161 42.4041 73.6799 42.1721 74.1106C37.862 82.1611 33.5188 90.2447 29.2088 98.2951C29.043 98.5933 28.9436 98.9908 28.7115 99.1234C28.1479 99.4215 27.5179 99.5872 26.888 99.7859C26.7222 99.1565 26.2249 98.3945 26.4239 97.9307C27.1201 96.3073 28.0484 94.8165 28.8773 93.2594C32.5574 86.4016 36.2043 79.577 39.8844 72.7192C40.3817 71.7915 40.9122 70.8639 42.1389 71.659C42.4704 71.8909 42.6362 72.3547 42.8683 72.6529Z" fill="#40A4FC"/>
<path d="M0.663071 73.5806C0.430993 73.0174 -0.0663193 72.4542 -1.10473e-05 71.9241C0.0662972 71.3609 0.497301 70.5658 0.994613 70.3339C3.18278 69.4063 5.40411 68.6443 7.65859 67.816C14.0905 65.497 20.4892 63.1448 26.9211 60.8257C27.1864 60.7263 27.4848 60.5276 27.7168 60.5938C28.3468 60.7263 28.9435 60.9914 29.5403 61.1901C29.2419 61.8196 29.1093 62.7804 28.6451 62.9791C26.2249 64.0062 23.7052 64.8675 21.2186 65.762C15.052 68.0148 8.88529 70.2345 2.71863 72.4873C2.25447 72.653 1.79031 72.8186 1.32615 72.9842C1.09408 73.183 0.89515 73.3818 0.663071 73.5806Z" fill="#40A4FC"/>
<path d="M24.3019 82.2936C23.8378 81.9292 23.241 81.6973 23.1416 81.3328C23.0089 80.9021 23.1084 80.2396 23.3736 79.842C23.8046 79.2125 24.4346 78.7156 24.965 78.1855C29.474 73.6799 34.0161 69.1412 38.5251 64.6356C38.8235 64.3374 39.1218 63.8736 39.4865 63.7411C40.1828 63.5092 40.9122 63.5092 41.6416 63.4098C41.5421 64.1386 41.7079 65.1325 41.31 65.5632C38.3925 68.6442 35.3754 71.5928 32.3584 74.6075C30.1702 76.7941 28.0152 78.9806 25.7939 81.134C25.3629 81.5647 24.8324 81.8629 24.3019 82.2936Z" fill="#40A4FC"/>
<path d="M27.1532 19.447C27.6505 19.8445 28.1478 20.0764 28.4794 20.474C32.5242 25.7747 36.569 31.0754 40.6138 36.3761C41.1774 37.105 41.4426 37.8669 40.5806 38.5295C39.7186 39.2252 39.0555 38.7283 38.4919 37.9994C34.4471 32.6987 30.4023 27.4312 26.3907 22.0973C26.0591 21.6666 26.026 20.8715 26.0923 20.2752C26.1254 20.0102 26.7222 19.7783 27.1532 19.447Z" fill="#40A4FC"/>
<path d="M51.7867 28.3257C51.9193 25.4103 52.0188 22.4949 52.2177 19.5795C52.2509 18.9501 52.483 18.2875 52.8477 17.7905C53.0466 17.5255 53.9086 17.4261 54.1407 17.6249C54.5385 17.9562 54.9032 18.6188 54.8701 19.1157C54.7374 23.1906 54.5054 27.2656 54.3064 31.3405C54.207 33.1957 54.1075 35.0841 54.0081 36.9394C53.9417 37.9333 53.7097 38.9603 52.4498 38.7946C51.3226 38.6621 51.2894 37.7014 51.3226 36.7406C51.5215 33.9246 51.621 31.1417 51.7867 28.3257Z" fill="#40A4FC"/>
<path d="M23.7383 51.1519C26.3243 51.1519 28.9104 51.1519 31.4964 51.1519C32.491 51.1519 33.3199 51.4169 33.2867 52.5765C33.2536 53.6697 32.4247 53.8354 31.4964 53.8023C26.1917 53.6035 20.9202 53.3716 15.6156 53.1728C14.6872 53.1397 13.7921 52.8415 14.0573 51.8145C14.2231 51.2844 15.1846 50.5887 15.7813 50.5887C18.4337 50.5556 21.086 50.7543 23.7052 50.8869C23.7383 50.9862 23.7383 51.0525 23.7383 51.1519Z" fill="#40A4FC"/>
<path d="M77.6137 55.2599C75.0609 55.2599 72.5412 55.2599 69.9883 55.2599C69.06 55.2599 68.2643 54.9949 68.2643 53.9348C68.2974 52.7752 69.1594 52.5433 70.1209 52.5764C74.9283 52.6758 79.7024 52.7752 84.5098 52.8746C85.4713 52.9077 86.3333 53.1396 86.3001 54.3323C86.267 55.5912 85.2723 55.5581 84.3772 55.5581C82.1227 55.5581 79.8682 55.5581 77.5806 55.5581C77.6137 55.4256 77.6137 55.3593 77.6137 55.2599Z" fill="#40A4FC"/>
<path d="M77.216 33.527C76.785 34.0571 76.5197 34.5209 76.1219 34.8853C73.1049 37.635 70.0547 40.3517 67.0045 43.0683C66.2751 43.6977 65.38 44.1947 64.7832 43.2008C64.5179 42.737 64.7832 41.5774 65.2142 41.1468C68.2644 38.2645 71.3809 35.4816 74.5636 32.7319C74.9615 32.3675 75.7572 32.3012 76.354 32.3675C76.6524 32.4006 76.8844 33.0632 77.216 33.527Z" fill="#40A4FC"/>
<path d="M67.9659 72.9842C68.4632 73.3486 68.9605 73.5805 69.2921 73.9781C71.7455 77.1585 74.1657 80.3389 76.6192 83.5525C77.1496 84.2482 77.5143 85.0433 76.6523 85.7059C75.724 86.4017 75.0278 85.9047 74.431 85.1096C72.0439 81.9623 69.5905 78.815 67.2697 75.6346C66.9381 75.1707 66.8718 74.4419 66.9381 73.8456C66.9381 73.5474 67.5349 73.3486 67.9659 72.9842Z" fill="#40A4FC"/>
<path d="M94.7545 55.7237C93.2294 55.7237 91.6711 55.7237 90.146 55.7237C89.2177 55.7237 88.3226 55.5581 88.2563 54.3654C88.2231 53.1065 89.1183 53.0071 90.0797 53.0403C93.0968 53.0734 96.1138 53.1396 99.164 53.1396C100.125 53.1396 101.054 53.3715 101.087 54.4648C101.12 55.7237 100.092 55.8231 99.0645 55.79C97.6389 55.7569 96.2133 55.79 94.7876 55.79C94.7545 55.79 94.7545 55.7569 94.7545 55.7237Z" fill="#40A4FC"/>
<path d="M88.422 23.1906C87.7258 24.1845 87.4606 24.6814 87.0959 25.0127C84.9077 27.0336 82.6532 28.9883 80.465 30.976C79.7688 31.6055 78.9068 31.9699 78.3763 31.0423C78.1111 30.5785 78.2768 29.4521 78.6747 29.0877C80.8629 26.9674 83.1174 24.9796 85.4382 23.025C85.836 22.6937 86.4991 22.5612 87.0627 22.5943C87.4937 22.5612 87.9247 22.9587 88.422 23.1906Z" fill="#40A4FC"/>
<path d="M104.634 79.1794C106.425 80.2065 108.182 81.1341 109.806 82.1942C110.039 82.3268 110.005 83.2875 109.773 83.6188C109.541 83.9501 108.746 84.2814 108.381 84.1157C106.789 83.3869 105.231 82.5918 103.739 81.6642C103.408 81.4654 103.209 80.6703 103.341 80.2396C103.54 79.8752 104.137 79.6101 104.634 79.1794Z" fill="#40A4FC"/>
<path d="M24.9651 102.602C25.2966 103.231 25.9597 103.927 25.7939 104.391C25.4292 105.55 24.7661 106.677 24.0367 107.704C23.8047 108.035 22.9095 108.135 22.4785 107.969C22.1138 107.836 21.6496 106.975 21.7823 106.71C22.3127 105.484 23.0421 104.292 23.7384 103.132C23.871 102.933 24.302 102.9 24.9651 102.602Z" fill="#40A4FC"/>
</g>
<defs>
<clipPath id="clip0">
<rect width="111" height="130" fill="white"/>
</clipPath>
</defs>
</svg>
