<svg xmlns="http://www.w3.org/2000/svg" viewBox="0 0 162.11 153.21"><defs><style>.cls-1{isolation:isolate;}.cls-2,.cls-3,.cls-4,.cls-5{fill:#fff;}.cls-3,.cls-4,.cls-5,.cls-6{stroke:#fff;stroke-miterlimit:10;}.cls-3{stroke-width:3px;}.cls-4,.cls-5,.cls-6{stroke-linecap:round;stroke-width:5px;}.cls-4{mix-blend-mode:color-burn;}.cls-6{fill:none;}</style></defs><title>Asset 5</title><g class="cls-1"><g id="Layer_2" data-name="Layer 2"><g id="Layer_1-2" data-name="Layer 1"><rect class="cls-2" x="46.78" y="125.93" width="68.38" height="27.28" rx="3.43"/><circle class="cls-3" cx="14.81" cy="90.42" r="13.31"/><circle class="cls-3" cx="81.22" cy="14.81" r="13.31"/><circle class="cls-3" cx="19.42" cy="14.81" r="7.08"/><circle class="cls-3" cx="141.06" cy="14.81" r="7.08"/><circle class="cls-3" cx="147.29" cy="90.42" r="13.31"/><line class="cls-4" x1="113.43" y1="14.81" x2="141.06" y2="14.81"/><line class="cls-5" x1="19.42" y1="14.81" x2="94.53" y2="14.81"/><path class="cls-6" d="M14.81,90.42c0-27.24,12.44-51.09,31.11-64.4"/><path class="cls-6" d="M147.29,90.42c0-41.79-30-75.61-67-75.61"/><path class="cls-2" d="M113.55,76.56,87.42,45.38,81,37.71l-6.43,7.67L48.05,77a5.37,5.37,0,0,0-1.26,3.47v23.6a10.65,10.65,0,0,0,.43,3,11,11,0,0,0,10.59,8h46.35a11,11,0,0,0,10.56-8,10.65,10.65,0,0,0,.44-3V81A6.82,6.82,0,0,0,113.55,76.56ZM81,103.73A13.32,13.32,0,1,1,94.3,90.42,13.3,13.3,0,0,1,81,103.73Z"/></g></g></g></svg>